<?xml version="1.0" encoding="UTF-8"?>
<svg id="Ebene_1" xmlns="http://www.w3.org/2000/svg" version="1.1" viewBox="0 0 1417.3 1417.3" width="24" height="24">
  <!-- Generator: Adobe Illustrator 30.2.1, SVG Export Plug-In . SVG Version: 2.1.1 Build 1)  -->
  <path d="M239.5,0h938.2c132.2,0,239.5,107.3,239.5,239.5v938.2c0,132.2-107.3,239.5-239.5,239.5H239.5c-132.2,0-239.5-107.3-239.5-239.5V239.5C0,107.3,107.3,0,239.5,0Z" style="fill: #f07e22;"/>
  <path d="M1115.4,251.2H493.1c-48,0-87,39-87,87v34.2h-38.9c-48,0-87,39-87,87v267.7c0,8.7,7.1,15.8,15.8,15.8s15.8-7.1,15.8-15.8v-267.7c0-30.5,24.8-55.3,55.3-55.3h622.3c30.5,0,55.3,24.8,55.3,55.3v466.9c0,30.5-24.8,55.3-55.3,55.3h-125.8c-8.7,0-15.8,7-15.8,15.7l-1.2,151.8-156.1-162.7c-3-3.1-7.1-4.9-11.4-4.9h-64.9c-8.7,0-15.8,7.1-15.8,15.8s7.1,15.8,15.8,15.8h58.2l178.4,185.9c3,3.2,7.2,4.9,11.4,4.9s3.9-.4,5.8-1.1c6-2.4,9.9-8.1,10-14.6l1.4-175.1h110.1c48,0,87-39,87-87v-34.2h38.9c48,0,87-39,87-87v-466.9c0-48-39-87-87-87ZM1170.7,805.1c0,30.5-24.8,55.3-55.3,55.3h-38.9v-401c0-48-39-87-87-87H437.8v-34.2c0-30.5,24.8-55.3,55.3-55.3h622.3c30.5,0,55.3,24.8,55.3,55.3v466.9Z" style="fill: #fff;"/>
  <path d="M217.7,940.6c105.1-25.2,129.6-49.7,154.8-154.8.9-3.6,6.1-3.6,6.9,0,25.2,105.1,49.7,129.6,154.8,154.8,3.6.9,3.6,6.1,0,6.9-105.1,25.2-129.6,49.7-154.8,154.8-.9,3.6-6.1,3.6-6.9,0-25.2-105.1-49.7-129.6-154.8-154.8-3.6-.9-3.6-6.1,0-6.9Z" style="fill: #fff;"/>
  <path d="M451.6,796.6c39.7-9.5,49-18.8,58.5-58.5.3-1.4,2.3-1.4,2.6,0,9.5,39.7,18.8,49,58.5,58.5,1.4.3,1.4,2.3,0,2.6-39.7,9.5-49,18.8-58.5,58.5-.3,1.4-2.3,1.4-2.6,0-9.5-39.7-18.8-49-58.5-58.5-1.4-.3-1.4-2.3,0-2.6Z" style="fill: #fff;"/>
  <path d="M937.7,700.2h-301.5c-8.7,0-15.8-7.1-15.8-15.8s7.1-15.8,15.8-15.8h301.5c8.7,0,15.8,7.1,15.8,15.8s-7.1,15.8-15.8,15.8Z" style="fill: #fff;"/>
  <path d="M937.7,844.8h-232.3c-8.7,0-15.8-7.1-15.8-15.8s7.1-15.8,15.8-15.8h232.3c8.7,0,15.8,7.1,15.8,15.8s-7.1,15.8-15.8,15.8Z" style="fill: #fff;"/>
</svg>
