<?xml version="1.0" encoding="UTF-8"?>
<svg id="Layer_1" xmlns="http://www.w3.org/2000/svg" version="1.1" viewBox="0 0 24 24">
  <!-- Generator: Adobe Illustrator 30.0.0, SVG Export Plug-In . SVG Version: 2.1.1 Build 123)  -->
  <path d="M18.8,4h-10.4c-.8,0-1.5.7-1.5,1.5v.5h-.6c-.8,0-1.5.7-1.5,1.5v4.5c0,.2.1.3.3.3s.3-.1.3-.3v-4.5c0-.5.4-.9.9-.9h10.4c.5,0,.9.4.9.9v7.8c0,.5-.4.9-.9.9h-2.1c-.2,0-.3.1-.3.3v2.4s-2.5-2.6-2.5-2.6c0,0-.1,0-.2,0h-1.1c-.2,0-.3.1-.3.3s.1.3.3.3h.9l3,3.1c0,0,.1,0,.2,0s0,0,.1,0c.1,0,.2-.2.2-.3v-2.9h1.8c.8,0,1.5-.7,1.5-1.5v-.5h.6c.8,0,1.5-.7,1.5-1.5v-7.8c0-.8-.7-1.5-1.5-1.5ZM16.7,6H7.5v-.5c0-.5.4-.9.9-.9h10.4c.5,0,.9.4.9.9v7.8c0,.5-.4.9-.9.9h-.6v-6.7c0-.8-.7-1.5-1.5-1.5Z"/>
  <path d="M6.5,13c0,0,0,0-.1,0s0,0-.1,0c-.4,1.7-.8,2.1-2.5,2.5,0,0,0,0,0,.1s0,0,0,.1c1.7.4,2.1.8,2.5,2.5,0,0,0,0,.1,0s0,0,.1,0c.4-1.7.8-2.1,2.5-2.5,0,0,0,0,0-.1s0,0,0-.1c-1.7-.4-2.1-.8-2.5-2.5Z"/>
  <path d="M8.8,12.2s0,0,0,0,0,0,0,0c-.2.6-.3.8-.9.9h0s0,0,0,0c0,0,0,0,0,0,.6.2.8.3.9.9,0,0,0,0,0,0s0,0,0,0c.2-.6.3-.8.9-.9,0,0,0,0,0,0,0,0,0,0,0,0-.6-.2-.8-.3-.9-.9Z"/>
  <path d="M15.8,8.5H7c-.2,0-.3.1-.3.3s.1.3.3.3h8.8c.2,0,.3-.1.3-.3s-.1-.3-.3-.3Z"/>
  <path d="M15.8,11h-5c-.2,0-.3.1-.3.3s.1.3.3.3h5c.2,0,.3-.1.3-.3s-.1-.3-.3-.3Z"/>
  <path d="M15.8,13.4h-3.9c-.2,0-.3.1-.3.3s.1.3.3.3h3.9c.2,0,.3-.1.3-.3s-.1-.3-.3-.3Z"/>
</svg>